PathFileType	4	(X/Y/Z)	C:/Users/beibeiliu/ov580/test_trc/User2\sequence.1_training_dense_right.trc
DataRate	CameraRate	NumFrames	NumMarkers	Units	OrigDataRate	OrigDataStartFrame	OrigNumFrames
120	120	20	19	mm	120	85	338
Frame#	Time	ThumbCMC			ThumbMCP			ThumbIP			ThumbTip			IndexMCP			IndexPIP			IndexTip			MiddleMCP			MiddlePIP			MiddleTip			RingMCP			RingPIP			RingTip			PinkyMCP			PinkyPIP			PinkyTip			BackHand1			BackHand2			BackHand3	
		X0	Y0	Z0	X1	Y1	Z1	X2	Y2	Z2	X3	Y3	Z3	X4	Y4	Z4	X5	Y5	Z5	X6	Y6	Z6	X7	Y7	Z7	X8	Y8	Z8	X9	Y9	Z9	X10	Y10	Z10	X11	Y11	Z11	X12	Y12	Z12	X13	Y13	Z13	X14	Y14	Z14	X15	Y15	Z15	X16	Y16	Z16	X17	Y17	Z17	X18	Y18	Z18	
84	0.7	74.6711	-1.39902	89.5349	49.3287	-8.56507	72.7804	21.5417	-16.204	51.3549	8.22272	-26.2188	36.5003	72.134	4.42827	3.31233	66.6292	-2.93765	-24.106	58.7801	-11.2497	-49.8576	103.145	0.780216	-5.09842	100.21	-6.62024	-39.6367	100.741	-16.2238	-69.5076	126.753	-5.38062	-5.03185	133.923	-11.8703	-28.6161	127.007	-16.3323	-56.5959	151.37	-17.8949	15.8639	160.113	-23.1901	-9.63443	161.252	-23.1413	-33.5818	132.291	7.50284	50.0584	142.009	14.3577	81.7826	106.104	16.7272	67.8827	
85	0.708333	74.1405	-0.920151	88.382	47.4906	-8.09761	75.0975	24.6804	-16.8984	51.6318	5.20292	-25.4438	38.225	74.4671	3.81732	5.79731	65.599	-1.25669	-22.0197	58.6141	-10.3004	-49.7603	100.93	2.0342	-8.7869	102.197	-5.44504	-35.6037	98.9971	-15.0073	-69.9433	131.234	-6.14397	-4.39345	129.465	-10.048	-27.2834	131.821	-15.8828	-57.5469	151.388	-17.213	11.7227	158.598	-22.0138	-9.7809	161.429	-22.7734	-37.1544	133.104	7.77844	54.1233	141.883	13.4801	86.2197	106.897	17.9478	72.9967	
86	0.716667	72.4684	0.194664	89.0377	45.9633	-7.54932	78.0361	20.2488	-14.8149	52.5875	4.51947	-24.9764	39.9396	73.5728	5.19076	3.11079	66.5313	-1.25413	-19.6222	60.5546	-10.5804	-51.6382	104.113	3.64609	-6.69154	101.96	-4.33847	-38.0115	97.9362	-14.8872	-69.6898	130.714	-4.79548	-5.83496	128.596	-9.05731	-30.7465	126.657	-14.181	-59.5778	150.371	-16.3269	12.8025	156.223	-19.6309	-12.3965	161.533	-19.4973	-33.9901	133.873	7.31613	51.9883	142.696	17.0132	84.2053	104.896	19.9601	69.5859	
87	0.725	74.2867	0.572938	92.1005	46.669	-5.99696	73.8911	19.9393	-14.1906	52.7682	4.52499	-23.5244	35.4714	75.5864	5.90974	3.59601	66.5963	-0.371187	-19.5189	56.685	-7.82483	-45.8322	102.448	4.31728	-8.34397	98.48	-3.67331	-36.0547	100.435	-13.1336	-66.1732	128.818	-2.99411	-4.34242	131.65	-8.81778	-29.9145	128.653	-13.1359	-56.8351	152.8	-15.9001	13.2483	156.779	-20.2286	-11.3263	165.6	-20.3994	-35.7183	136.348	9.88355	54.0729	141.266	15.0727	83.2191	105.734	19.2125	73.4502	
88	0.733333	74.6526	1.04883	94.0161	45.1321	-5.2444	77.7845	23.8155	-13.5328	54.8694	8.76273	-23.4652	35.5251	76.8681	5.98093	5.46923	67.7565	-0.00773287	-23.094	57.3589	-8.8967	-48.5853	106.427	4.39778	-7.4977	102.431	-2.90717	-34.5393	98.7994	-11.6583	-66.7333	126.198	-2.94219	-4.55694	129.53	-8.09067	-30.7528	132.309	-12.8497	-59.5855	149.816	-14.3379	14.6052	159.196	-19.6616	-11.5384	165.47	-19.1655	-36.6812	132.416	8.55184	51.5607	139.189	16.5969	82.6433	104.03	20.901	72.3995	
89	0.741667	74.3554	2.26962	89.5203	47.912	-5.10163	77.8632	22.1131	-11.967	54.1485	9.70968	-22.5662	39.0344	75.6108	6.36562	6.63686	64.9055	1.11415	-17.5379	62.0813	-7.37029	-48.8347	106.025	4.30615	-4.46202	100.421	-2.56423	-36.3474	97.9344	-12.2496	-67.4363	127.578	-2.35544	-3.72148	132.316	-8.38249	-26.756	129.228	-11.368	-55.5162	153.484	-15.0227	14.5565	157.073	-18.8508	-8.19721	165.444	-18.385	-30.4374	136.967	9.31228	55.3745	143.51	15.7693	83.5374	103.002	22.4833	70.9135	
90	0.75	74.5701	3.43344	92.9113	46.7602	-2.32938	76.3034	22.2087	-9.33776	52.2433	5.66725	-19.2685	38.316	73.6515	9.02179	6.07974	69.474	1.78354	-18.6729	60.9256	-5.88827	-44.9382	107.231	5.99411	-2.8348	101.139	-1.62284	-34.7951	100.862	-9.49233	-63.8112	131.873	-2.15575	-0.540232	131.961	-7.85266	-30.2667	132.447	-12.218	-58.0707	152.297	-14.9214	15.8453	161.713	-20.2472	-8.72684	165.04	-20.4141	-30.2254	134.756	10.1204	52.6114	141.257	17.1648	88.8129	103.664	23.8174	72.0825	
91	0.758333	79.1127	4.67774	91.0172	48.22	0.9331	75.4664	26.8449	-8.21762	56.9193	6.95481	-14.8607	40.8396	79.449	8.95228	5.50688	67.8909	2.77441	-21.8725	62.5488	-5.96495	-46.6831	107.884	5.71936	-4.58446	103.295	-1.81742	-38.4588	101.871	-10.6936	-66.269	131.438	-2.50453	-2.40619	135.79	-8.9972	-30.3813	131.8	-13.666	-55.1069	156.353	-17.1122	16.7122	161.329	-22.3078	-10.4945	166.136	-22.9759	-30.3533	138.241	9.94145	52.0133	146.035	16.4419	86.4925	107.334	22.9514	74.6642	
92	0.766667	79.2012	8.87283	88.906	54.7183	3.21299	74.7627	26.5144	-0.94556	55.9115	11.88	-9.21494	38.1039	79.6898	10.7714	5.58403	70.163	5.29075	-22.6214	66.0595	-4.75807	-47.492	110.259	5.91356	-5.14089	103.846	-2.51733	-36.9178	106.981	-13.1771	-63.9922	132.347	-4.45279	-1.97297	136.412	-10.4202	-25.3543	135.809	-18.4941	-58.8221	157.12	-19.4138	13.1993	159.722	-24.9818	-6.29006	166.423	-27.4422	-32.4361	141.996	8.41815	53.1376	150.758	15.0264	86.8845	111.483	22.4643	73.2718	
93	0.775	83.3108	12.906	88.8763	54.5843	9.99823	76.6274	28.8933	7.16536	51.2141	8.9675	1.5074	39.4719	84.5961	12.0432	5.23251	73.1971	7.31645	-20.023	69.5834	-4.73132	-48.3805	111.8	5.43859	-3.48605	110.12	-6.24422	-38.6476	104.906	-17.1396	-66.4817	135.219	-8.74339	-2.52756	136.52	-15.7121	-25.4897	132.697	-21.3446	-52.6813	155.473	-24.7498	15.3606	161.878	-31.9505	-6.87548	166.18	-36.1913	-31.9443	146.597	4.45832	51.1703	149.97	12.8688	88.1834	116.043	25.369	68.7571	
94	0.783333	87.7678	15.3572	91.5081	58.695	15.8884	77.9786	30.8686	15.077	51.9413	13.4703	8.225	34.6135	89.9589	11.7394	2.8482	78.562	6.94417	-24.0472	68.1326	-0.721014	-46.6576	115.337	3.00933	-5.94869	110.073	-8.21967	-38.0792	105.683	-20.1523	-66.9446	138.259	-11.6624	-2.69082	138.611	-20.6431	-25.7287	136.477	-27.5107	-53.29	151.947	-27.5594	18.0329	157.43	-36.0286	-7.4606	163.885	-41.9406	-34.0918	147.956	0.833923	52.0882	154.769	8.92066	81.7194	119.905	27.1335	72.0986	
95	0.791667	87.9858	20.1302	89.2164	60.4571	22.624	76.621	33.406	21.4456	49.556	19.4698	14.5837	34.8765	90.6896	14.2543	5.27485	80.8979	7.49743	-23.2835	69.8864	-0.781192	-46.3419	119.516	-1.24971	-4.09296	110.672	-9.57218	-36.1352	106.832	-22.9491	-64.2365	136.542	-14.3966	-0.127352	135.794	-23.6717	-25.3188	133.098	-31.8846	-53.4187	151.687	-31.7567	16.7972	156.801	-43.155	-8.75855	159.437	-49.9486	-30.7249	148.268	0.584231	52.4849	157.362	7.21995	82.2473	125.366	23.1844	66.8206	
96	0.8	91.4388	25.3297	86.5006	67.0339	25.1691	69.9028	40.5847	27.3222	50.7214	21.5283	23.4959	33.0156	93.0118	15.4689	2.65158	81.6149	10.7393	-21.6061	75.388	-1.83256	-47.1135	116.821	-2.37467	-9.865	113.141	-14.3436	-37.611	104.626	-23.7868	-63.0421	138.025	-21.2809	0.444668	134.717	-30.4492	-29.6266	127.501	-35.3823	-56.1931	153.139	-39.5874	19.7604	150.794	-47.8275	-9.08231	156.821	-55.4617	-28.3081	148.462	-3.46588	53.5159	157.142	5.20915	80.7416	128.913	24.1714	69.117	
97	0.808333	94.6362	27.2395	85.0658	72.2675	29.4714	69.6116	43.317	36.1454	50.5689	26.1619	30.2411	31.2991	98.7	12.2316	1.12121	85.3559	7.16475	-23.9369	75.1797	-2.32688	-48.6074	118.219	-5.23575	-10.436	110.519	-15.1137	-36.6707	103.052	-28.6552	-65.7475	136.021	-26.9637	-3.1247	134.709	-36.9229	-25.2571	128.735	-45.0033	-53.2118	146.808	-43.7252	19.3238	150.062	-58.3128	-7.02889	152.772	-65.686	-30.0189	150.232	-11.0346	50.6735	160.438	-0.0834949	79.2992	131.348	21.808	65.3022	
98	0.816667	99.6044	28.2595	86.7541	74.9164	33.8242	71.6717	50.6567	37.4744	48.0111	29.1713	38.7764	29.5136	101.622	10.2421	0.108151	89.7562	5.25197	-25.1747	75.3732	1.35635	-51.0262	121.52	-10.0104	-9.84545	111.881	-19.2903	-39.7904	102.588	-27.9642	-63.6487	135.896	-30.6953	0.90823	132.227	-39.584	-24.3195	125.893	-47.1256	-51.0997	146.612	-51.6312	22.7001	143.586	-59.4113	-7.61279	145.023	-69.5383	-28.5118	148.899	-13.3555	52.9197	162.31	-6.53233	82.5696	132.984	19.3098	62.6372	
99	0.825	103.181	28.2978	83.9865	79.1782	33.6545	69.1076	53.6735	41.8678	44.1974	33.1952	45.2426	28.2741	100.961	12.3628	0.613734	89.6206	9.3784	-23.4291	77.617	1.8022	-51.8751	119.832	-8.43033	-10.0471	111.637	-18.5873	-36.7016	101.316	-26.4995	-65.5527	134.228	-32.2954	-1.3137	131.882	-42.8178	-26.9886	125.734	-50.0317	-53.2312	144.419	-54.8033	19.5417	143.306	-66.735	-4.71724	143.302	-71.4236	-29.1608	148.57	-19.7931	50.0495	163.81	-12.881	80.9911	135.767	15.1919	64.1593	
100	0.833333	107.476	26.2675	83.6243	82.9464	38.5277	68.1969	58.4668	46.2725	46.6283	41.3884	46.5527	26.1691	105.173	9.60708	-1.11064	92.103	10.0379	-27.4639	82.5669	3.84945	-49.6187	121.526	-12.0712	-9.0388	112.851	-20.0374	-39.3144	103.161	-26.4482	-65.787	134.801	-34.1997	0.336116	130.611	-41.1569	-27.4594	123.48	-49.171	-57.5484	139.585	-55.4986	21.477	138.574	-64.8359	-3.4258	140.606	-76.8075	-27.5118	147.376	-20.5644	51.4469	163.191	-17.9355	79.6777	140.536	12.7325	62.7289	
101	0.841667	111.383	29.9411	78.4897	89.8805	38.9187	62.6775	65.6571	52.7173	39.0475	48.2434	56.3098	27.1983	107.174	13.4141	-4.47768	96.3099	11.7545	-27.5894	85.6451	4.99106	-54.8097	123.641	-13.1378	-12.3511	114.075	-18.2727	-38.4697	104.314	-26.2012	-70.8145	133.138	-33.4883	-2.4097	129.391	-43.1722	-27.9086	123.115	-48.9531	-56.454	135.37	-56.2777	21.3382	135.265	-69.2999	-5.45688	138.342	-78.5223	-27.9641	149.304	-25.1953	53.1227	161.678	-18.9044	80.7697	144.281	8.82012	60.8564	
102	0.85	119.905	27.6852	76.8297	99.191	45.0819	61.1459	76.2666	58.1642	35.0573	59.7216	59.741	22.7874	114.67	9.5303	-4.7284	103.72	8.0843	-29.7269	92.1077	3.90175	-56.0251	127.5	-16.2045	-11.5613	117.78	-23.0207	-42.627	107.894	-32.173	-73.6767	133.388	-39.9843	-0.628674	128.831	-46.6851	-27.2762	123.33	-52.9948	-55.3144	134.117	-60.65	18.0209	132.04	-73.4026	-4.00665	133.215	-84.1334	-25.5154	149.5	-28.1551	46.5104	165.197	-24.6526	79.9419	149.334	5.00535	59.3753	
103	0.858333	129.739	32.3494	75.1208	111.773	47.4056	56.8574	92.2453	60.0983	31.5472	74.955	68.2554	11.5093	121.028	5.17986	-10.0787	108.911	8.20008	-35.8568	97.0957	5.96064	-60.7332	130.094	-22.0066	-12.527	119.295	-24.1455	-44.1318	109.356	-30.7637	-72.0227	132.427	-42.4665	-4.11262	126.987	-51.6265	-26.1934	120.734	-58.7184	-53.8569	130.462	-65.193	18.6647	126.734	-74.2584	-2.35495	126.742	-85.4847	-24.3617	150.96	-34.3172	47.3246	165.897	-27.7946	77.8602	154.744	6.05293	57.2211	
